<svg xmlns="http://www.w3.org/2000/svg" viewBox="0 0 1859.64 598.52"><title>Element 1</title><g id="Ebene_2" data-name="Ebene 2"><g id="Ebene_1-2" data-name="Ebene 1"><path d="M207.93,147.18l-26.41,64.36c-21.45-9.9-41.25-14-51.15-14-18.16,0-29.71,7.43-29.71,18.16s12.38,19,40.43,37.13c62.71,42.9,80,64.36,80,100.66,0,49.51-42.08,89.11-116.34,89.94-39.61,0-76.74-9.9-104.79-25.58l24.75-66c28.88,14,46.21,21.45,65.19,21.45,26.4-.82,38-10.73,38-21.45,0-8.25-7.42-17.33-48.68-44.56C20.63,269.3,9.08,247,9.08,213.19c0-41.26,31.35-85.81,111.39-85C156,128.2,184.82,138.1,207.93,147.18Z"/><path d="M368,82.82H278.05V.31H368ZM366.34,433.5H279.7V138.1h86.64Z"/><path d="M539.6,210.72V433.19H453.78V210.72H419.13v-72.5h34.65q0-69-.1-138L539.6,0V138.22h34.65v72.5Z"/><path d="M956.27,285.8c0,90.76-74.26,161.72-174.1,161.72-99,0-173.27-71-173.27-161.72s74.26-161.72,173.27-161.72C882,124.08,956.27,195,956.27,285.8Zm-257.44,0c0,49.51,35.48,87.46,83.34,87.46s84.16-38.78,84.16-87.46-36.3-87.46-84.16-87.46S698.83,237.12,698.83,285.8Z"/><path d="M1163.36,598.52c-32.18,0-65.18-3.31-100.67-9.91V511.05c38.79,8.26,68.49,11.56,98.2,11.56,51.15,0,86.63-17.33,86.63-81.69V398.84c-25.58,27.23-61.06,44.56-101.49,44.56-78.38,0-151.82-60.24-151.82-156.78,0-97.36,72.61-158.42,151.82-158.42,41.26,0,77.56,18.15,104,46.21V138.1h84.16V438.45C1334.16,551.48,1278.05,598.52,1163.36,598.52Zm88.29-312.72c0-47-38.78-82.51-82.51-82.51-48.69,0-84.17,35.48-84.17,82.51s35.48,82.51,84.17,82.51C1212.87,368.31,1251.65,332,1251.65,285.8Z"/><path d="M1731.84,285.8c0,90.76-74.26,161.72-174.09,161.72-99,0-173.28-71-173.28-161.72s74.26-161.72,173.28-161.72C1657.58,124.08,1731.84,195,1731.84,285.8Zm-257.43,0c0,49.51,35.48,87.46,83.34,87.46s84.16-38.78,84.16-87.46-36.31-87.46-84.16-87.46S1474.41,237.12,1474.41,285.8Z"/><rect x="1762.04" y="382.97" width="96.6" height="34.27" rx="16.01" ry="16.01"/><path d="M1842.63,384a15,15,0,0,1,15,15v2.26a15,15,0,0,1-15,15H1778a15,15,0,0,1-15-15V399a15,15,0,0,1,15-15h64.59m0-2H1778a17,17,0,0,0-17,17v2.26a17.05,17.05,0,0,0,17,17h64.59a17.05,17.05,0,0,0,17-17V399a17.05,17.05,0,0,0-17-17Z"/><rect x="1793.2" y="350.91" width="34.27" height="96.6" rx="16.01" ry="16.01"/><path d="M1811.47,351.91a15,15,0,0,1,15,15V431.5a15,15,0,0,1-15,15h-2.26a15,15,0,0,1-15-15V366.92a15,15,0,0,1,15-15h2.26m0-2h-2.26a17.05,17.05,0,0,0-17,17V431.5a17.05,17.05,0,0,0,17,17h2.26a17.05,17.05,0,0,0,17-17V366.92a17.05,17.05,0,0,0-17-17Z"/></g></g></svg>