<svg id="Ebene_1" data-name="Ebene 1" xmlns="http://www.w3.org/2000/svg" viewBox="0 0 119.83 35.36"><path d="M55.18,133.46l-6.8-2.87A5.59,5.59,0,0,1,44.65,125a4.84,4.84,0,0,1,1.58-3.62,5.4,5.4,0,0,1,3.87-1.5h9.57v3.4H50.33a1.88,1.88,0,0,0-1.33.5,1.59,1.59,0,0,0-.54,1.22,2.42,2.42,0,0,0,.39,1.45,3.1,3.1,0,0,0,1.33,1l6.6,2.79q4,1.68,4,5.53a4.65,4.65,0,0,1-1.67,3.63,6,6,0,0,1-4.13,1.49H44.69v-3.4h10a2.58,2.58,0,0,0,1.59-.5,1.47,1.47,0,0,0,.65-1.22A2.41,2.41,0,0,0,55.18,133.46Z" transform="translate(-44.65 -112.82)"/><path d="M66.37,112.82a2.2,2.2,0,0,1,1.59.65,2.14,2.14,0,0,1,.65,1.58,2.16,2.16,0,0,1-.65,1.59,2.2,2.2,0,0,1-1.59.65,2.17,2.17,0,0,1-1.58-.65,2.2,2.2,0,0,1-.65-1.59,2.22,2.22,0,0,1,2.23-2.23Zm-1.88,28.05v-21H68.3v21Z" transform="translate(-44.65 -112.82)"/><path d="M72.62,114.11h3.81v5.8H82.5v3.4H76.43V135a2.15,2.15,0,0,0,.84,1.73,3.16,3.16,0,0,0,2.12.71H82.5v3.4H79a6.52,6.52,0,0,1-4.6-1.63,5.39,5.39,0,0,1-1.76-4.14Z" transform="translate(-44.65 -112.82)"/><path d="M146.21,119a12,12,0,0,1,4.35.8,11.39,11.39,0,0,1,3.64,2.29,10.82,10.82,0,0,1,0,15.56,11.11,11.11,0,0,1-3.64,2.31,12.23,12.23,0,0,1-8.7,0,11.11,11.11,0,0,1-3.64-2.31,10.82,10.82,0,0,1,0-15.56,11.39,11.39,0,0,1,3.64-2.29A12,12,0,0,1,146.21,119Zm-7.48,10.88a7.51,7.51,0,1,0,2.2-5.28A7.17,7.17,0,0,0,138.73,129.9Z" transform="translate(-44.65 -112.82)"/><path d="M114.35,122.19" transform="translate(-44.65 -112.82)"/><path d="M96.91,123.75a7.68,7.68,0,0,0-5.36,1.94,6.35,6.35,0,0,0-2.12,4.92,6.27,6.27,0,0,0,2.11,4.88,7.7,7.7,0,0,0,5.37,1.92,10.05,10.05,0,0,0,3.69-.79,16.12,16.12,0,0,0,6.47-5.08,21.74,21.74,0,0,0,3.26-5.35l3.42,1.61c-.73,1.18-6.85,10.76-13.51,12.55a14.85,14.85,0,0,1-3.33.46,11.66,11.66,0,0,1-8.1-2.87,10.06,10.06,0,0,1,0-14.7,12.82,12.82,0,0,1,16.19,0c2.13,1.92-1.33,3.74-2.74,2.45A7.67,7.67,0,0,0,96.91,123.75Z" transform="translate(-44.65 -112.82)"/><path d="M120.64,123.81a7.66,7.66,0,0,0-5.35,1.93,6.36,6.36,0,0,0-2.13,4.92,6.28,6.28,0,0,0,2.12,4.88,7.69,7.69,0,0,0,5.36,1.92,8.54,8.54,0,0,0,3.7-.79,6.34,6.34,0,0,0,1.83-1.31,7.42,7.42,0,0,0,2-5.06c.44,2.27.87,4.55,1.3,6.82a12,12,0,0,1-8.78,3.74,11.71,11.71,0,0,1-8.09-2.86,10.07,10.07,0,0,1,0-14.71,12.82,12.82,0,0,1,16.19,0,9.48,9.48,0,0,1,3.19,7.37v9.08a6.67,6.67,0,0,1-.76,3.07,8.57,8.57,0,0,1-2.13,2.66,12.6,12.6,0,0,1-8.4,2.71,27.5,27.5,0,0,1-4.64-.44,24.61,24.61,0,0,1-4.44-1.16l1.08-3.32a23.32,23.32,0,0,0,4,1.08,21.32,21.32,0,0,0,4,.44,9,9,0,0,0,5.55-1.62,4.18,4.18,0,0,0,1.93-3.42v-9.08a6.38,6.38,0,0,0-2.12-4.92A7.67,7.67,0,0,0,120.64,123.81Z" transform="translate(-44.65 -112.82)"/><path d="M116.09,129.91" transform="translate(-44.65 -112.82)"/><path d="M122,133.57" transform="translate(-44.65 -112.82)"/><path d="M105.15,115.65" transform="translate(-44.65 -112.82)"/><rect x="54.65" y="12.91" width="8.17" height="2.8"/><rect x="60.02" y="7.54" width="2.81" height="8.18"/><rect x="115.04" y="24.61" width="4.79" height="1.76"/><rect x="116.55" y="23.05" width="1.76" height="4.8"/></svg>